PathFileType        4      (X/Y/Z)      C:\Users\pc\Desktop\IMUTRC\Sujet_07\Sujet_07_velo_60.trc         
DataRate	CameraRate	NumFrames	NumMarkers	Units	OrigDataRate	OrigDataStartFrame	OrigNumFrames
60.0	60.0	4	64	mm	60.0	234	935
Frame#	Time	pHipOrigin			pRightASI			pLeftASI			pRightCSI			pLeftCSI			pRightIschialTub			pLeftIschialTub			pSacrum			pL5SpinalProcess			pL3SpinalProcess			pT12SpinalProcess			pIJ			pT4SpinalProcess			pT8SpinalProcess			pPX			pC7SpinalProcess			pTopOfHead			pRightAuricularis			pLeftAuricularis			pBackOfHead			pRightAcromion			pLeftAcromion			pRightArmLatEpicondyle			pRightArmMedEpicondyle			pLeftArmLatEpicondyle			pLeftArmMedEpicondyle			pRightUlnarStyloid			pRightRadialStyloid			pRightOlecranon			pLeftUlnarStyloid			pLeftRadialStyloid			pLeftOlecranon			pRightTopOfHand			pRightPinky			pRightBallHand			pLeftTopOfHand			pLeftPinky			pLeftBallHand			pRightGreaterTrochanter			pRightKneeLatEpicondyle			pRightKneeMedEpicondyle			pRightPatella			pLeftGreaterTrochanter			pLeftKneeLatEpicondyle			pLeftKneeMedEpicondyle			pLeftPatella			pRightTibialTub			pRightLatMalleolus			pRightMedMalleolus			pLeftTibialTub			pLeftLatMalleolus			pLeftMedMalleolus			pRightHeelFoot			pRightFirstMetatarsal			pRightFifthMetatarsal			pRightPivotFoot			pRightHeelCenter			pRightToe			pLeftHeelFoot			pLeftFirstMetatarsal			pLeftFifthMetatarsal			pLeftPivotFoot			pLeftHeelCenter			pLeftToe			
		X1	Y1	Z1	X2	Y2	Z2	X3	Y3	Z3	X4	Y4	Z4	X5	Y5	Z5	X6	Y6	Z6	X7	Y7	Z7	X8	Y8	Z8	X9	Y9	Z9	X10	Y10	Z10	X11	Y11	Z11	X12	Y12	Z12	X13	Y13	Z13	X14	Y14	Z14	X15	Y15	Z15	X16	Y16	Z16	X17	Y17	Z17	X18	Y18	Z18	X19	Y19	Z19	X20	Y20	Z20	X21	Y21	Z21	X22	Y22	Z22	X23	Y23	Z23	X24	Y24	Z24	X25	Y25	Z25	X26	Y26	Z26	X27	Y27	Z27	X28	Y28	Z28	X29	Y29	Z29	X30	Y30	Z30	X31	Y31	Z31	X32	Y32	Z32	X33	Y33	Z33	X34	Y34	Z34	X35	Y35	Z35	X36	Y36	Z36	X37	Y37	Z37	X38	Y38	Z38	X39	Y39	Z39	X40	Y40	Z40	X41	Y41	Z41	X42	Y42	Z42	X43	Y43	Z43	X44	Y44	Z44	X45	Y45	Z45	X46	Y46	Z46	X47	Y47	Z47	X48	Y48	Z48	X49	Y49	Z49	X50	Y50	Z50	X51	Y51	Z51	X52	Y52	Z52	X53	Y53	Z53	X54	Y54	Z54	X55	Y55	Z55	X56	Y56	Z56	X57	Y57	Z57	X58	Y58	Z58	X59	Y59	Z59	X60	Y60	Z60	X61	Y61	Z61	X62	Y62	Z62	X63	Y63	Z63	X64	Y64	Z64	
234	3.883	0.0	1249.97763	7.653905517926474E-14	118.64937375256159	1329.87878	124.49389637433418	79.98378004347707	1320.15104	-156.9518508167159	94.09420627630107	1410.59675	99.59881403158033	62.2801082193322	1402.57694	-131.93177173677137	-66.07228227265104	1215.07658	69.29194986826415	-81.97933197100845	1211.06667	-46.47333185565766	-58.543946364559844	1294.08663	6.499909579005014	14.174814956522882	1381.71056	-6.135619692584778	98.01530784758677	1470.74538	-23.925633111524743	178.1079289096186	1548.64157	-41.90732210232512	441.87938145156096	1523.83954	-93.17803949121229	350.44581755748914	1651.78533	-80.80084130958461	267.0800062434836	1613.39417	-62.050820499526495	330.2993154933348	1466.58696	-67.73779613967795	405.1120347529603	1675.32498	-91.425946949736	678.9504793058056	1663.221	-121.96480598089717	583.6932634403063	1642.72591	-43.113248314295944	571.6122845897115	1658.76554	-186.5946391399008	571.2902554818367	1706.88445	-108.06642836354557	435.0582379039605	1610.12684	94.18142769895249	364.71899922769336	1602.47831	-270.3745171480391	462.8392186528047	1321.41341	73.09309755786146	425.85435283785944	1319.63123	20.271364260463937	387.87274231170716	1310.86884	-280.3293965549475	351.4231291891034	1301.6609	-227.8899147103686	544.0064895014527	1077.32879	28.893580536298725	592.3629685281458	1100.9427	22.514101986927454	419.93644990201386	1312.79954	52.35319281960954	445.61865101902083	1054.53172	-266.8826843652489	494.8603561334861	1073.09611	-279.69643947482706	345.09939266259937	1301.51239	-249.46168175278447	737.5059051540345	1048.4426	121.31784139113846	658.4185294814849	1023.34354	74.8850142932813	602.683475323475	1060.32381	31.816719857557395	580.516982436832	991.5613	-421.9689482371629	526.8310982481947	982.05633	-343.9822891731845	496.98079849528136	1030.39801	-288.41865337997774	55.06652232767325	1242.70039	168.38486553234404	449.39346234457156	1054.45746	89.25311062991089	438.4713710017503	1051.78419	4.061607760585567	460.55400240001296	1097.89814	40.21946821397888	-12.216108521441043	1224.43303	-177.257299370089	168.70028301660807	821.21444	-221.0587214360142	185.4315038120047	812.30353	-137.31504592629412	219.37020694926986	839.55606	-182.28670410303465	482.3668154818367	1007.97222	45.953487700257035	283.58824020854365	658.73888	146.23771952975525	276.3876932748206	650.42203	81.6300726612479	220.37944012512492	768.7886	-189.67832724029975	21.479734068399438	406.26315	-213.19443073953602	35.17691807824117	400.54532	-149.2947093652019	218.09151548844767	587.45162	125.57221447431388	375.6347673605376	536.7337	89.28389784223339	377.97463507192055	548.16936	167.8055480831283	398.4439682526628	536.06538	127.74764301702724	258.25994692799753	580.91695	125.35501036066654	486.72139816659393	508.96137	129.1538892444978	-45.306136310003886	351.08978	-163.60715001643214	104.21868049198324	271.33715	-159.4229097099024	85.73636546447213	271.18864	-236.71774104075945	114.39983289236842	260.34703	-201.56216294697143	-8.61818591963629	335.64421	-172.35044411811526	192.19189818162758	213.93605	-220.01463245368362	
235	3.9	0.0	1249.97763	7.653905517926474E-14	119.20363927824769	1329.58175	124.127940322962	79.36786794561985	1320.29955	-157.22169977023088	94.60139784847217	1410.37398	99.46291245940921	61.78286926093008	1402.79971	-131.96160859731629	-65.7878657004799	1215.00232	69.5419059147492	-82.16497197100844	1211.21518	-46.15179394374057	-58.46239822510474	1294.16089	6.804224058206072	14.202001003007915	1381.71056	-6.034187306353785	98.02525180110175	1470.67112	-24.091376544240756	178.02639443041755	1548.64157	-42.21164024178021	441.6718843537038	1524.06232	-94.15528397530049	350.201195459632	1651.85959	-81.71378340744182	266.9169186248274	1613.39417	-62.65944445792863	330.17335787467863	1466.66122	-68.4107311445651	404.77592922238705	1675.4735	-92.47745509407831	678.6442106357774	1663.66654	-123.51355308364153	583.5427892494789	1643.0972	-44.486299370555244	571.1575059196831	1659.06257	-187.88615937721312	570.9369128582933	1707.18148	-109.38512098708885	435.18223633178934	1610.49812	93.22407612189423	364.0414492179191	1602.55256	-271.28016610644124	462.86906917360363	1321.63619	72.59585493920528	425.74563231217337	1319.77975	19.865613734777835	387.5909952138499	1310.9431	-281.17803626657366	351.17851575150024	1301.6609	-228.80285180822577	544.2935705479377	1077.62582	28.544861577896636	592.5857385281458	1101.31398	22.128253028525346	419.9291704228127	1312.94805	51.92026124743841	445.8785510190208	1054.75449	-267.332844370136	495.0559450870011	1073.39314	-280.18372947971415	344.8547705647421	1301.51239	-250.37462385064165	737.7558612005197	1048.81388	121.03342481896739	658.668476867716	1023.71483	74.60059272111019	602.9334313699601	1060.69509	31.53230328538627	580.9326905762871	991.78407	-422.24341585581914	527.2196166809108	982.2791	-344.35820283832567	497.2678708815124	1030.69504	-288.7673773383799	54.96508628118821	1241.2895	168.41203791857507	445.7271349947406	1045.62081	89.36573587699753	435.07223679137434	1043.61585	4.157000914702088	457.89938005995623	1089.13574	40.65896898186444	-12.611910093612167	1225.10135	-177.31433093737294	176.15765008783956	825.89267	-224.4702800940783	193.46036484163832	816.83324	-140.82538115652932	226.69895192753128	844.97686	-185.77252276109868	480.343396802034	1000.39795	45.29973165865918	291.9704438617206	645.00123	144.04607692306334	284.3740903558264	637.12993	79.38140714752605	225.83790008872492	772.05593	-193.04351722833547	11.833204884649263	417.92159	-210.44657207658477	26.037566806408073	412.27801	-146.68274861416774	229.9225967798294	570.59515	122.45644056916319	390.046210991976	528.8624	85.85724526216721	391.67600503821774	539.48123	164.5691591682033	412.8182818841012	528.93665	124.38530148344609	270.42252740531933	566.21395	122.25914302279979	502.46875785429165	506.58513	125.64108218034342	-55.90272893135722	364.5304	-160.55035320913865	91.57876762354327	281.13915	-156.68837841852073	72.85644050306209	281.28767	-233.86453660992265	101.3269747915033	269.77774	-198.82034851613463	-19.67489981989985	348.19373	-169.38781387810573	177.86733663827212	221.43607	-217.48102406444468	
236	3.917	0.0	1249.97763	7.653905517926474E-14	119.75790480393378	1329.28472	123.76198427158982	78.71483450801668	1320.59658	-157.42723267726083	95.0714594206433	1410.15121	99.3913219337231	61.31280768875895	1403.02248	-131.89001807163018	-65.50344912830879	1214.92806	69.79186196123422	-82.41492801749348	1211.28944	-45.86737737156945	-58.417988745903685	1294.16089	7.172844583892162	14.29348443572394	1381.71056	-5.8956212598687525	97.99807941487074	1470.67112	-24.192812590725804	177.9819849512165	1548.64157	-42.58026076746629	441.50152225584657	1524.06232	-95.19684816612777	349.9565770220288	1651.93385	-82.62671184504502	266.7538446664253	1613.39417	-63.26807207658476	330.0474089162765	1466.66122	-69.08366114945225	404.50412973829884	1675.4735	-93.49182457816651	678.246458533033	1663.88932	-125.20086623287092	583.3651426724206	1643.24571	-45.96078647329959	570.6483638169389	1659.13683	-189.3805393869874	570.5292118020341	1707.32999	-110.9066820433482	435.3433647596182	1610.57238	92.20241349835092	363.2624545014057	1602.47831	-272.1586476786124	462.80742260143245	1321.71044	71.96004993431814	425.6839857400022	1319.85401	19.22980872989069	387.3735541624777	1311.09161	-281.98953731794586	350.92393603987404	1301.73516	-229.550046813113	544.5163455479378	1077.84859	28.159003959240476	592.8085135281458	1101.53676	21.742395409869157	419.86752385064165	1313.02231	51.284456242551265	446.1755810190208	1054.97726	-267.8473154215082	495.3801611334861	1073.69017	-280.5967681448554	344.63732951337	1301.51239	-251.18612490201386	737.9686872470047	1049.18517	120.81331929328128	658.9184329142008	1024.01186	74.31617614893906	603.2205124164451	1060.91787	31.183584326984096	581.4498261019733	991.93259	-422.5450608607063	527.672449820366	982.50188	-344.6969728432128	497.5920869279974	1030.99207	-289.1804160035211	54.762212848472196	1239.58157	168.4664050115451	440.9721831608214	1034.92772	89.87877404088837	430.64877548314126	1033.7396	4.689940645876937	454.3861963752665	1078.3684	41.54596162006917	-12.767709572813231	1225.99244	-177.49001832360395	184.8693900758753	831.53624	-228.27231637568568	202.67929140184518	822.25405	-144.7633103500538	235.05202400364993	851.51153	-189.69588799622107	477.26846497788915	991.0415	44.98208980788855	299.7095543705552	629.55566	141.48314431637144	291.7817103389749	622.05564	76.79857297355016	232.38498587615908	776.36287	-196.8091424536836	3.7652633244423868	431.21369	-208.50220738180997	18.43969181837234	425.57012	-144.80998310533306	241.11059358712288	552.4763	118.96938166401249	403.233109906901	519.13465	82.32382634724219	404.0885415620246	529.01091	161.18887525816544	425.8666234127952	520.02575	120.94337100123711	281.77626264532887	550.0258	118.78203673141812	516.4843999135588	502.12967	122.15739803299323	-65.04935968239138	380.05023	-158.37132403027564	80.16605028567655	292.64907	-154.4457521369133	61.34228711871034	293.02036	-231.59473794208427	89.58276692795047	280.91638	-196.59762380181118	-29.190142436366045	362.5997	-167.16437022004166	164.7228880117209	230.42123	-215.20927120577903	
237	3.933	0.0	1249.97763	7.653905517926474E-14	120.41360271585089	1328.98769	123.36884217373262	77.96035636367444	1320.96787	-157.60559819805977	95.57864233256038	1409.92843	99.255415361552	60.67700768387181	1403.31951	-131.8283801597131	-65.1819112163917	1214.70529	69.97750196123422	-82.60057301749347	1211.43796	-45.545830799398324	-58.37357926670262	1294.16089	7.541465109578255	14.246410482208976	1381.71056	-5.665566780667693	97.93376836838573	1470.74538	-24.229942590725802	177.7990044255304	1548.71583	-42.85738920018232	441.1654117252733	1524.13657	-96.24834765021596	349.6476438776865	1651.93385	-83.57678394290222	266.4992736150531	1613.46843	-64.01526208147192	329.85715391138933	1466.73547	-69.79372981459343	404.1408431612406	1675.54775	-94.64477376899374	677.7943393373185	1664.03783	-127.09105281481636	583.1603237091314	1643.39423	-47.53670962252902	570.1120406677094	1659.21109	-190.97636044324676	570.1586407457747	1707.40425	-112.49255414609253	435.3758747547311	1610.64664	91.10650453506166	362.2534139659453	1602.32979	-273.08419820429845	462.71860364303035	1321.7847	71.22280888294597	425.59515812134606	1319.92826	18.492562678518507	386.95323101813545	1311.09161	-282.74667627634807	350.66936498850185	1301.73516	-230.29723681800007	544.7762455479377	1078.07137	27.708843954353323	593.0312835281458	1101.75953	21.35654645146705	419.81582623198545	1313.09657	50.48289914469401	446.4726110190208	1055.20003	-268.3617864728804	495.64006113348614	1074.06146	-281.04692814974254	344.31844741551276	1301.51239	-251.970444906901	738.0800722470046	1049.55646	120.62039481408023	659.0669479142009	1024.30889	74.05894062325297	603.4432874164452	1061.14064	30.797726708327993	581.9941390138903	992.15536	-422.7452784793624	528.152455346052	982.72465	-344.9343068016149	497.9162979744824	1031.21484	-289.5934460084082	54.457894709017104	1237.65088	168.5479394907462	435.0370960895899	1022.60096	90.65366639560652	425.1194389375959	1022.22967	5.356112474908974	449.96006559271945	1065.96738	42.6775850163852	-12.859201665783274	1226.95779	-177.62858937008897	194.63264686850732	838.21942	-232.41045318786627	212.82110901342423	828.56594	-149.11161373440558	244.4095216103418	859.0858	-193.7253092827156	473.2706557626261	980.05138	45.074818487691175	306.7956277815327	612.55067	138.71466514239555	298.70204031723637	605.57046	74.02014984605931	239.98357980793548	781.70941	-200.91087320960486	-2.771163225990179	446.21372	-207.13130449651857	12.410451840110895	440.42163	-143.57497313195876	251.45262381735805	533.24359	115.16539985183184	414.9926093328507	507.69899	78.7379958699204	415.21222732283303	516.75841	157.66468635301473	437.48755179225975	509.18414	117.44903261688535	292.20978130828007	532.64953	115.11661230546845	528.7954867306266	495.44649	118.80429016944043	-72.69165280988224	397.35224	-156.86718404712704	69.90627347838306	305.71841	-152.5664174323642	51.082510311416854	306.38672	-229.71540323753513	78.91723959497091	293.54016	-194.609568571576	-37.403938182513045	378.86211	-165.56145866472193	152.58287357599693	240.81729	-213.04356939848552	
